# xmcd CD database file
#
# Track frame offsets:
#	150
#	14534
#	26735
#	45141
#	59215
#	71600
#	87453
#	103124
#	120758
#	132961
#	148062
#
# Disc length: 2251 seconds
#
# Revision: 2
# Processed by: cddbd v1.5.2PL0 Copyright (c) Steve Scherf et al.
# Submitted via: CDex 2.21
#
DISCID=9908c90b
DTITLE=Miranda Lambert - Crazy Ex-Girlfriend
DYEAR=2007
DGENRE=Country
TTITLE0=Gunpowder and Lead
TTITLE1=Dry Town
TTITLE2=Famous In a Small Town
TTITLE3=Crazy Ex-Girlfriend
TTITLE4=Love Letters
TTITLE5=Desperation
TTITLE6=More Like Her
TTITLE7=Down
TTITLE8=Guilty In Here
TTITLE9=Getting Ready
TTITLE10=Easy from Now On
EXTD=YEAR: 2007
EXTT0=
EXTT1=
EXTT2=
EXTT3=
EXTT4=
EXTT5=
EXTT6=
EXTT7=
EXTT8=
EXTT9=
EXTT10=
PLAYORDER=
